<svg width="1000" height="1000" viewBox="0 0 1000 1000" fill="none" xmlns="http://www.w3.org/2000/svg">
<rect width="1000" height="1000"/>
<path d="M361.968 863.15C360.518 862.25 357.768 861.35 354.168 861.35C347.218 861.35 342.518 865.6 342.518 871.4C342.518 876.65 346.418 880 352.168 882.15C357.118 884.15 359.168 886.45 359.168 890.2C359.168 894.3 356.168 897.05 351.068 897.05C347.968 897.05 344.918 896.05 342.868 894.7L341.718 898.15C343.618 899.5 347.368 900.55 350.818 900.55C359.018 900.55 363.418 895.9 363.418 889.85C363.418 884.4 360.268 881.25 354.118 878.65C349.018 876.5 346.718 874.6 346.718 870.85C346.718 868.1 348.718 864.85 354.018 864.85C357.218 864.85 359.618 865.9 360.718 866.6L361.968 863.15ZM377.585 900H381.735V861.9H377.585V900ZM424.63 861.9H420.68V878.5C420.68 884.5 420.78 889.05 421.18 894.35L421.08 894.4C419.33 890.45 417.13 886.5 414.43 881.95L402.13 861.9H397.78V900H401.68V883.2C401.68 876.6 401.63 872.15 401.28 867.3L401.48 867.25C403.33 871.45 405.78 875.7 408.33 879.95L420.48 900H424.63V861.9ZM464.732 895.5C462.832 896.4 459.982 897.05 457.082 897.05C448.182 897.05 442.782 891.15 442.782 881.15C442.782 870.65 448.682 864.85 457.332 864.85C460.332 864.85 462.782 865.55 464.532 866.4L465.632 862.9C464.432 862.3 461.782 861.35 457.232 861.35C446.082 861.35 438.432 869 438.432 881.3C438.432 894.2 446.332 900.55 456.132 900.55C460.482 900.55 463.882 899.7 465.632 898.85L464.732 895.5ZM499.287 896.5H483.337V881.75H497.537V878.3H483.337V865.4H498.437V861.9H479.187V900H499.287V896.5ZM552.476 896.6H535.926V896.5L538.876 893.4C546.626 885.6 551.576 879.6 551.576 872.55C551.576 867.4 548.576 861.9 541.026 861.9C537.026 861.9 533.626 863.5 531.326 865.55L532.726 868.45C534.526 867 537.226 865.35 540.226 865.35C545.626 865.35 547.376 869.05 547.376 873.05C547.376 879.15 542.876 884.6 533.976 893.6L530.326 897.45V900H552.476V896.6ZM576.465 900.6C583.915 900.6 588.465 893.9 588.465 880.9C588.465 868.65 584.115 861.95 577.015 861.95C570.015 861.95 564.915 868.3 564.915 881.4C564.915 893.9 569.665 900.6 576.465 900.6ZM576.615 897.2C571.915 897.2 569.165 890.95 569.165 881.1C569.165 871.25 572.315 865.3 576.765 865.3C582.015 865.3 584.265 871.75 584.265 881.1C584.265 890 582.165 897.2 576.615 897.2ZM611.504 900.6C618.954 900.6 623.504 893.9 623.504 880.9C623.504 868.65 619.154 861.95 612.054 861.95C605.054 861.95 599.954 868.3 599.954 881.4C599.954 893.9 604.704 900.6 611.504 900.6ZM611.654 897.2C606.954 897.2 604.204 890.95 604.204 881.1C604.204 871.25 607.354 865.3 611.804 865.3C617.054 865.3 619.304 871.75 619.304 881.1C619.304 890 617.204 897.2 611.654 897.2ZM639.793 862.55L637.443 880C638.693 879.8 640.243 879.65 642.243 879.65C649.243 879.65 652.543 883.25 652.543 888.4C652.593 893.8 648.543 897.25 643.843 897.25C640.593 897.25 637.843 896.1 636.443 895.15L635.243 898.4C636.943 899.5 640.093 900.6 643.843 900.6C651.243 900.6 656.743 895.3 656.743 887.9C656.743 880.35 650.793 876.4 644.143 876.4C642.843 876.4 642.043 876.5 641.243 876.6L642.793 866H656.243V862.55H639.793Z" fill="white"/>
<path d="M294.303 199.042C262.803 230.542 248.303 261.042 204.803 288.542C220.403 214.542 270.969 198.042 294.303 199.042Z" fill="white"/>
<path d="M183.803 322.042C194.303 272.542 199.303 252.042 218.803 227.042C155.303 258.042 162.803 312.042 164.303 369.042C204.803 319.042 246.803 318.542 253.803 265.542C213.803 301.042 205.803 294.542 183.803 322.042Z" fill="white"/>
<path d="M155.303 414.042C166.303 377.542 200.803 353.542 222.803 336.542C198.803 405.042 164.303 420.542 148.803 467.042C108.803 361.042 130.803 334.042 152.803 288.542C148.003 332.142 152.469 390.375 155.303 414.042Z" fill="white"/>
<path d="M164.303 570.042C164.303 525.042 188.303 497.042 195.303 419.042C178.803 442.542 153.303 468.942 151.303 520.542C137.303 474.042 116.303 439.542 113.303 403.542C110.803 406.542 75.5027 465.242 164.303 570.042Z" fill="white"/>
<path d="M217.303 664.542C200.103 617.742 212.303 565.542 192.803 510.542C186.303 533.042 173.103 575.242 186.303 622.042C174.703 606.042 116.303 546.042 104.803 517.542C96.4027 581.142 155.303 629.542 217.303 664.542Z" fill="white"/>
<path d="M291.303 734.042C258.103 693.642 291.303 700.542 226.303 619.042C227.404 641.075 238.645 690.328 257.803 710.042C258.574 710.836 258.468 712.419 257.303 711.542C208.803 675.042 172.303 664.542 134.303 629.542C144.803 657.042 164.303 713.542 291.303 734.042Z" fill="white"/>
<path d="M393.303 759.542C352.903 749.142 329.303 715.042 288.303 692.542C289.636 705.375 301.503 735.242 338.303 752.042C252.703 752.042 208.636 734.375 197.303 725.542C217.303 755.042 256.903 799.142 393.303 759.542Z" fill="white"/>
<path d="M471.303 768.542C408.803 748.042 353.803 816.542 262.803 791.042C318.803 842.542 383.803 823.042 471.303 768.542Z" fill="white"/>
<path d="M706 199.042C737.5 230.542 752 261.042 795.5 288.542C779.9 214.542 729.333 198.042 706 199.042Z" fill="white"/>
<path d="M816.5 322.042C806 272.542 801 252.042 781.5 227.042C845 258.042 837.5 312.042 836 369.042C795.5 319.042 753.5 318.542 746.5 265.542C786.5 301.042 794.5 294.542 816.5 322.042Z" fill="white"/>
<path d="M845 414.042C834 377.542 799.5 353.542 777.5 336.542C801.5 405.042 836 420.542 851.5 467.042C891.5 361.042 869.5 334.042 847.5 288.542C852.3 332.142 847.833 390.375 845 414.042Z" fill="white"/>
<path d="M836 570.042C836 525.042 812 497.042 805 419.042C821.5 442.542 847 468.942 849 520.542C863 474.042 884 439.542 887 403.542C889.5 406.542 924.8 465.242 836 570.042Z" fill="white"/>
<path d="M783 664.542C800.2 617.742 788 565.542 807.5 510.542C814 533.042 827.2 575.242 814 622.042C825.6 606.042 884 546.042 895.5 517.542C903.9 581.142 845 629.542 783 664.542Z" fill="white"/>
<path d="M709 734.042C742.2 693.642 709 700.542 774 619.042C772.898 641.075 761.658 690.328 742.5 710.042C741.729 710.836 741.835 712.419 743 711.542C791.5 675.042 828 664.542 866 629.542C855.5 657.042 836 713.542 709 734.042Z" fill="white"/>
<path d="M607 759.542C647.4 749.142 671 715.042 712 692.542C710.667 705.375 698.8 735.242 662 752.042C747.6 752.042 791.667 734.375 803 725.542C783 755.042 743.4 799.142 607 759.542Z" fill="white"/>
<path d="M529 768.542C591.5 748.042 646.5 816.542 737.5 791.042C681.5 842.542 616.5 823.042 529 768.542Z" fill="white"/>
<path d="M500.151 774.529L482.803 773.042C455.969 786.709 400.203 818.342 391.803 835.542L405.303 846.542C427.586 823.76 477.677 778.247 500.151 778.043C522.626 778.247 572.717 823.76 595 846.542L608.5 835.542C600.1 818.342 544.333 786.709 517.5 773.042L500.151 774.529Z" fill="white"/>
<path d="M447.797 634.5H369L369 578.334C370.837 577.084 372.666 575.85 374.487 574.633C393.662 594.656 417.794 614.914 447.797 634.5Z" fill="white"/>
<path d="M544.011 634.5H476.314C473.893 633.126 471.7 631.797 469.754 630.542C480.625 610.083 490.929 589.485 500.541 569.176C514.649 577.89 528.889 584.947 542.151 589.5C543.318 603.658 543.969 618.647 544.011 634.5Z" fill="white"/>
<path d="M608.966 634.5H553.037C552.847 620.509 552.227 606.283 551.039 592C562.39 595.262 576.895 597.838 590.428 597.49C596.71 609.176 602.895 621.499 608.966 634.5Z" fill="white"/>
<path d="M617.5 590.831V629.419C612.407 618.511 606.937 607.524 601.04 596.535C607.162 595.534 612.802 593.716 617.5 590.831Z" fill="white"/>
<path d="M617.5 571.44V572.804C612.809 578.812 605.163 583.352 594.772 585.143C580.696 560.201 564.333 535.384 545.103 511.589C570.268 528.075 594.708 547.812 617.5 571.44Z" fill="white"/>
<path d="M617.5 539.454V559.134C596.549 538.633 573.609 520.829 549.546 505.417C570.258 512.22 591.072 521.11 611.873 532.5C614.084 534.741 615.957 537.072 617.5 539.454Z" fill="white"/>
<path d="M617.5 510.534V525.83C607.47 513.266 596.914 501.958 586.137 491.838C590.46 491.918 594.255 492.241 597.5 492.756C604.231 498.472 610.9 504.396 617.5 510.534Z" fill="white"/>
<path d="M617.5 494.414C528.72 416.712 441.095 381.348 369 364.424L369 324C475 351 563.5 407.5 617.5 450.5V494.414Z" fill="white"/>
<path d="M369 371.179C369.338 371.251 369.672 371.322 370 371.393C384.483 375.756 399 380.606 413.5 386.005C406.435 384.116 391.917 382.055 375.545 381.153C373.38 380.187 371.198 379.233 369 378.291L369 371.179Z" fill="white"/>
<path d="M369 392.829C371.784 392.331 374.733 391.969 377.855 391.766C396.139 399.672 415.05 409.187 434.214 421.233C419.818 425.736 411.239 432.868 407.302 441.729C394.361 437.894 381.554 434.538 369 431.62L369 392.829Z" fill="white"/>
<path d="M369 441.159C380.696 443.552 392.747 446.381 405.038 449.723C403.841 458.194 405.879 467.771 410.387 477.868C396.427 477.847 382.612 478.353 369 479.278L369 441.159Z" fill="white"/>
<path d="M369 489.384C383.985 487.811 399.246 486.763 414.727 486.438C421.332 498.158 430.835 510.335 442.122 522.116C419.829 532.547 397.59 544.618 376.338 557.618C373.808 554.777 371.362 551.928 369 549.075L369 489.384Z" fill="white"/>
<path d="M385.455 567.438C405.469 588.131 429.928 608.03 458.355 625C469.707 604.501 480.913 583.553 491.343 563.25C476.933 553.578 462.918 542.348 450.507 530.485C430.333 540.375 408.586 552.553 385.455 567.438Z" fill="white"/>
<path d="M465 433.765C485.323 449.117 503.596 465.663 520.073 483.011C514.967 468.901 509.345 456.408 503.519 445.418C487.409 438.566 473.841 434.985 465 433.765Z" fill="white"/>
<path d="M537.637 463.223C529.167 457.957 523.474 454.738 515.683 451.005C519.949 459.027 522.518 466.651 525.234 474.711C526.353 478.03 527.497 481.423 528.794 484.948C532.135 477.179 535.105 469.899 537.637 463.223Z" fill="white"/>
<path d="M538.859 517.395C544.056 537.582 547.565 558.296 549.799 579C562.889 583.81 574.356 585.913 584.091 585.976C569.436 559.96 554.29 537.268 538.859 517.395Z" fill="white"/>
<path d="M540.859 576C538.06 550.419 533.551 527.727 527.955 507.695C521.245 523.739 513.965 540.293 506.188 557.107C516.806 563.607 528.365 569.946 540.859 576Z" fill="white"/>
<path d="M508.04 481.633C489.756 462.58 471.269 446.889 452.902 433.765C435.055 431.87 424.009 436.527 419.648 445.522C449.064 454.886 478.979 466.765 508.04 481.633Z" fill="white"/>
<path d="M462.185 524.93C472.226 533.813 483.945 542.769 497.326 551.505C506.008 534.314 514.028 517.755 520.988 502.518C503.539 507.665 483.851 514.944 462.185 524.93Z" fill="white"/>
<path d="M428.319 486.344C434.282 495.963 442.702 506.323 453.552 516.915C473.403 508.141 493.169 500.766 512.193 495.292C483.807 489.165 455.748 486.545 428.319 486.344Z" fill="white"/>
<path d="M417.606 453.299C417.025 460.249 419.063 468.682 423.689 478.049C449.202 478.712 475.135 481.227 501.143 486.247C473.126 472.114 444.88 461.408 417.606 453.299Z" fill="white"/>
<path d="M487 418.582C467.941 410.194 424.046 391.377 398.728 392.251C415.721 400.962 431.617 410.428 446.5 420.52C458.135 420.513 475.811 424.436 496.469 432.975C493.319 427.773 490.148 422.981 487 418.582Z" fill="white"/>
<path d="M542 451.005C527.34 441.275 512.486 432.357 497.5 424.18C498.772 425.997 500.485 428.058 502.238 430.167C504.567 432.969 506.967 435.855 508.492 438.365C519.416 443.418 528.449 448.454 540.275 456.036C540.886 454.308 541.462 452.63 542 451.005Z" fill="white"/>
<path d="M543.506 496.74C564.483 503.143 584.219 511.078 604 521.306C594.924 510.358 585.483 500.649 575.952 492.065C566.766 492.604 555.905 494.062 543.506 496.74Z" fill="white"/>
<path d="M567.775 484.985C559.821 478.369 551.861 472.508 544.051 467.338C541.315 474.567 538.431 481.965 535.408 489.503C546.63 487.164 557.469 485.62 567.775 484.985Z" fill="white"/>
<path d="M548.5 455.382C561.911 464.542 575.152 474.396 588.174 485C584.932 484.772 581.616 484.659 578.232 484.657C567.766 475.463 557.164 467.354 546.7 460.27C547.308 458.631 547.908 457.001 548.5 455.382Z" fill="white"/>
<path fill-rule="evenodd" clip-rule="evenodd" d="M447.797 634.5C449.075 635.335 450.364 636.168 451.664 637C434.251 668.018 416.781 697.487 401.5 721.5L414 725.5C431.275 699.052 447.831 670.994 463.327 642.5C487.037 656.391 515.103 666.344 543.045 671.486C541.983 691.288 540.016 712.275 537 734.5L548.5 732.5C550.245 714.124 551.771 694.08 552.551 673.05C578.41 676.799 603.726 676.316 624.914 670.902C628.32 679.19 631.684 687.72 635 696.5L644 693.5C640.939 685.172 637.696 676.692 634.245 668.1C650.455 662.448 663.552 653.438 671.587 640.691C675.318 646.627 678.958 652.728 682.5 659L687 653C683.435 646.043 679.677 639.276 675.741 632.696C682.012 617.712 682.251 598.506 674.186 574.633C688.531 586.305 702.816 599.381 717 614L721 606C686.892 561.427 652.108 524.704 617.5 494.414V510.534C617.667 510.689 617.833 510.845 618 511C629.182 521.424 640.787 534.818 650.305 549.312C640.515 542.568 630.96 536.473 621.5 530.944C620.177 529.217 618.843 527.512 617.5 525.83V539.454C622.704 547.489 624.145 556.095 622.082 563.692C620.565 562.158 619.038 560.639 617.5 559.134V571.44C617.692 571.639 617.884 571.838 618.076 572.038C617.889 572.296 617.697 572.551 617.5 572.804V590.831C621.338 588.475 624.548 585.406 626.879 581.489C640.3 596.355 653.078 612.659 665.012 630.542L665.177 630.789C659.217 641.608 647.988 650.538 628.903 655.119C625.321 646.627 621.529 638.047 617.5 629.419V634.5H608.966C612.457 641.975 615.91 649.674 619.322 657.605C596.981 663.688 574.116 663.76 552.918 660.631C553.106 652.043 553.157 643.318 553.037 634.5H544.011C544.032 642.459 543.899 650.637 543.601 659.036C515.766 653.623 491.55 643.152 476.314 634.5H447.797ZM633.958 517.395C652.547 535.686 671.217 556.133 689.876 579C682.396 572.974 675.119 567.321 668 562.013C660.638 552.052 643.524 529.184 633.958 517.395ZM668.891 621.706C674.746 601.118 666.336 576.702 657.92 562.013C647.467 554.288 636.988 547.278 626.5 540.928C630.963 554.017 631.922 564.303 630.329 572.303C644.336 587.393 657.288 603.827 668.891 621.706Z" fill="white"/>
<path d="M369 578.334V549.075C353.499 530.351 341.654 511.494 333.807 494.026C345.345 492.215 357.086 490.634 369 489.384V479.278C355.571 480.19 342.34 481.508 329.363 483.129C322.222 463.573 320.589 446.332 325 433.797C338.883 435.62 353.635 438.014 369 441.159V431.62C355.902 428.576 343.079 426.009 330.662 423.871C330.107 423.776 329.553 423.681 329 423.587C331.428 414.05 342.948 397.488 369 392.829V378.291C357.927 373.547 346.434 369.107 334.5 365C343.925 366.551 358.759 369.01 369 371.179V364.424C324.179 353.903 285.361 350.509 256 348.5C255.212 349.288 254.528 349.869 253.938 350.369C252.281 351.776 251.369 352.55 251 355.5C257.609 355.761 277.785 357.5 285 358.5C292.536 361.126 300.42 363.724 308.602 366.421C324.33 371.605 341.157 377.151 358.724 383.947C330.973 391.792 317.432 411.416 314.089 421.233C282.304 416.584 253.787 414.794 231 415L230 428C246.53 428 275.124 428.263 310 432C308.264 446.045 310.065 464.174 317.026 484.769C286.189 489.108 256.922 495.006 230 501L231 515C233.472 514.44 235.962 513.875 238.47 513.306C264.368 507.427 292.13 501.125 321.284 496.092C330.063 517.306 344.186 540.651 365.229 564.556C332.902 585.159 303.338 607.688 280 629.5L290 639C317.659 615.364 344.066 595.304 369 578.334Z" fill="white"/>
<path d="M369 334C475 361 563.5 417.5 617.5 460.5V450.5C563.5 407.5 475 351 369 324V334Z" fill="#A4A4A4"/>
<path d="M617.5 207.5H369V314C475 341 563.5 397.5 617.5 440.5V207.5Z" fill="white"/>
<path d="M369 314C475 341 563.5 397.5 617.5 440.5V430.5C563.5 387.5 475 331 369 304V314Z" fill="#A4A4A4"/>
<path d="M288.098 105.2L314.898 72.8H304.698L281.498 101.8C279.598 104.3 277.498 107.1 275.598 110H275.198V72.8H266.898V149H275.198V119.1L282.298 110.8L307.198 149H316.998L288.098 105.2ZM369.109 72.8H359.509L334.309 149H342.809L350.809 124.3H377.309L385.509 149H394.309L369.109 72.8ZM352.509 117.7L360.109 94.8C361.509 90 362.909 85.2 363.909 80.6H364.209C365.209 85.1 366.509 89.9 368.109 95.1L375.609 117.7H352.509ZM450.134 112.2C458.234 109.3 464.334 102.8 464.334 92.7C464.334 87 462.234 81.8 458.634 78.5C454.134 74.3 447.634 72.3 437.734 72.3C431.734 72.3 425.134 72.9 420.434 73.9V149H428.734V115.3H438.034C447.034 115.3 451.234 120 453.434 130.6C455.434 140.1 457.134 146.8 458.334 149H466.934C465.434 146.1 463.734 139.4 461.334 128.4C459.534 120.1 456.034 114.4 450.134 112.5V112.2ZM428.734 108.9V79.7C430.434 79.3 433.634 78.9 438.134 78.9C447.434 78.9 455.934 82.4 455.934 93.7C455.934 102.9 449.134 108.9 438.534 108.9H428.734ZM560.151 72.8H549.751L535.851 111.5C532.451 121.3 529.851 129.3 527.951 137H527.651C525.651 129.1 523.151 121 519.951 111.5L506.551 72.8H496.351L491.051 149H498.951L501.051 115.5C501.751 103.8 502.351 91.2 502.551 81.9H502.851C504.951 90.7 507.851 100.3 511.551 111.3L524.251 148.7H530.351L543.951 110.5C547.651 99.9 550.751 90.5 553.251 81.9H553.551C553.451 89.7 554.251 103.8 554.851 114.7L556.751 149H564.951L560.151 72.8ZM647.367 72.9H639.067V119C639.067 135.9 631.767 143.3 620.767 143.3C610.767 143.3 603.167 136.3 603.167 119V72.9H594.867V118.9C594.867 141.9 606.167 150.2 620.367 150.2C635.567 150.2 647.367 141.3 647.367 118.4V72.9ZM733.098 72.8H725.198V106C725.198 118 725.398 127.1 726.198 137.7L725.998 137.8C722.498 129.9 718.098 122 712.698 112.9L688.098 72.8H679.398V149H687.198V115.4C687.198 102.2 687.098 93.3 686.398 83.6L686.798 83.5C690.498 91.9 695.398 100.4 700.498 108.9L724.798 149H733.098V72.8Z" fill="white"/>
</svg>
